#Comment line ignore any data following # character 
#Hierarchical Translation and Rotation (.htr) file 
[Header]	
#Header keywords are followed by a single value 
FileType HTR		#Single word string
DataType HTRS		#Translation followed by rotation and scale data
FileVersion 1		#integer
NumSegments 84		#integer
NumFrames 2		#integer
DataFrameRate 30		#integer, data frame rate in this file
EulerRotationOrder ZYX
CalibrationUnits mm
RotationUnits Degrees
GlobalAxisofGravity Y
BoneLengthAxis Y
ScaleFactor 1.00
[SegmentNames&Hierarchy]
#CHILD	PARENT
MASTER GLOBAL
root MASTER
chest root
L_mid_tent01 root
R_mid_tent01 root
spine01 root
Bip01_Neck chest
L_humerus chest
R_humerus chest
weapon_bone chest
Bip01_Head Bip01_Neck
eye_left_bone Bip01_Head
eye_right_bone Bip01_Head
L_forearm L_humerus
L_front_hand L_forearm
L_weapon_bone L_forearm
L_front_hand01_01 L_front_hand
L_front_hand02_01 L_front_hand
L_front_hand03_01 L_front_hand
L_front_hand01_02 L_front_hand01_01
L_front_hand02_02 L_front_hand02_01
L_front_hand03_02 L_front_hand03_01
R_forearm R_humerus
R_front_hand R_forearm
R_weapon_bone R_forearm
R_front_hand01_01 R_front_hand
R_front_hand02_01 R_front_hand
R_front_hand03_01 R_front_hand
R_front_hand01_02 R_front_hand01_01
R_front_hand02_02 R_front_hand02_01
R_front_hand03_02 R_front_hand03_01
null_rope01_connect L_mid_tent01
Rope1_Seg01 null_rope01_connect
Rope1_Seg02 Rope1_Seg01
Rope1_Seg03 Rope1_Seg02
Rope1_Seg04 Rope1_Seg03
Rope1_Seg05 Rope1_Seg04
Rope1_Seg06 Rope1_Seg05
Rope1_Seg07 Rope1_Seg06
Rope1_Seg09 Rope1_Seg07
L_mid_hand01 Rope1_Seg09
L_mid_hand02 Rope1_Seg09
L_mid_hand03 Rope1_Seg09
null_rope02_connect R_mid_tent01
Rope2_Seg01 null_rope02_connect
Rope2_Seg02 Rope2_Seg01
Rope2_Seg03 Rope2_Seg02
Rope2_Seg04 Rope2_Seg03
Rope2_Seg05 Rope2_Seg04
Rope2_Seg06 Rope2_Seg05
Rope2_Seg07 Rope2_Seg06
Rope2_Seg09 Rope2_Seg07
R_mid_hand01 Rope2_Seg09
R_mid_hand02 Rope2_Seg09
R_mid_hand03 Rope2_Seg09
spine02 spine01
spine03 spine02
pelvis spine03
null_rope03_connect pelvis
null_rope04_connect pelvis
Rope3_Seg01 null_rope03_connect
Rope3_Seg02 Rope3_Seg01
Rope3_Seg03 Rope3_Seg02
Rope3_Seg04 Rope3_Seg03
Rope3_Seg05 Rope3_Seg04
Rope3_Seg06 Rope3_Seg05
Rope3_Seg07 Rope3_Seg06
Rope3_Seg08 Rope3_Seg07
Rope3_Seg09 Rope3_Seg08
R_rear_hand01 Rope3_Seg09
R_rear_hand02 Rope3_Seg09
R_rear_hand03 Rope3_Seg09
Rope4_Seg01 null_rope04_connect
Rope4_Seg02 Rope4_Seg01
Rope4_Seg03 Rope4_Seg02
Rope4_Seg04 Rope4_Seg03
Rope4_Seg05 Rope4_Seg04
Rope4_Seg06 Rope4_Seg05
Rope4_Seg07 Rope4_Seg06
Rope4_Seg08 Rope4_Seg07
Rope4_Seg09 Rope4_Seg08
L_rear_hand01 Rope4_Seg09
L_rear_hand02 Rope4_Seg09
L_rear_hand03 Rope4_Seg09
[BasePosition]
#SegmentName Tx, Ty, Tz, Rx, Ry, Rz, BoneLength
MASTER 0.000000 0.000000 0.000000 -90.000000 0.000000 0.000000 10.000000 
root 0.000000 0.000000 0.000000 0.000000 0.000000 0.000000 10.000000 
chest 0.000000 0.000000 0.000000 0.000000 0.000000 0.000000 10.000000 
L_mid_tent01 0.000000 0.000000 0.000000 0.000000 0.000000 0.000000 10.000000 
R_mid_tent01 0.000000 0.000000 0.000000 0.000000 0.000000 0.000000 10.000000 
spine01 0.000000 0.000000 0.000000 0.000000 0.000000 0.000000 10.000000 
Bip01_Neck 0.000000 0.000000 0.000000 0.000000 0.000000 0.000000 10.000000 
L_humerus 0.000000 0.000000 0.000000 0.000000 0.000000 0.000000 10.000000 
R_humerus 0.000000 0.000000 0.000000 0.000000 0.000000 0.000000 10.000000 
weapon_bone 0.000000 0.000000 0.000000 0.000000 0.000000 0.000000 10.000000 
Bip01_Head 0.000000 0.000000 0.000000 0.000000 0.000000 0.000000 10.000000 
eye_left_bone 0.000000 0.000000 0.000000 0.000000 0.000000 0.000000 10.000000 
eye_right_bone 0.000000 0.000000 0.000000 0.000000 0.000000 0.000000 10.000000 
L_forearm 0.000000 0.000000 0.000000 0.000000 0.000000 0.000000 10.000000 
L_front_hand 0.000000 0.000000 0.000000 0.000000 0.000000 0.000000 10.000000 
L_weapon_bone 0.000000 0.000000 0.000000 0.000000 0.000000 0.000000 10.000000 
L_front_hand01_01 0.000000 0.000000 0.000000 0.000000 0.000000 0.000000 10.000000 
L_front_hand02_01 0.000000 0.000000 0.000000 0.000000 0.000000 0.000000 10.000000 
L_front_hand03_01 0.000000 0.000000 0.000000 0.000000 0.000000 0.000000 10.000000 
L_front_hand01_02 0.000000 0.000000 0.000000 0.000000 0.000000 0.000000 10.000000 
L_front_hand02_02 0.000000 0.000000 0.000000 0.000000 0.000000 0.000000 10.000000 
L_front_hand03_02 0.000000 0.000000 0.000000 0.000000 0.000000 0.000000 10.000000 
R_forearm 0.000000 0.000000 0.000000 0.000000 0.000000 0.000000 10.000000 
R_front_hand 0.000000 0.000000 0.000000 0.000000 0.000000 0.000000 10.000000 
R_weapon_bone 0.000000 0.000000 0.000000 0.000000 0.000000 0.000000 10.000000 
R_front_hand01_01 0.000000 0.000000 0.000000 0.000000 0.000000 0.000000 10.000000 
R_front_hand02_01 0.000000 0.000000 0.000000 0.000000 0.000000 0.000000 10.000000 
R_front_hand03_01 0.000000 0.000000 0.000000 0.000000 0.000000 0.000000 10.000000 
R_front_hand01_02 0.000000 0.000000 0.000000 0.000000 0.000000 0.000000 10.000000 
R_front_hand02_02 0.000000 0.000000 0.000000 0.000000 0.000000 0.000000 10.000000 
R_front_hand03_02 0.000000 0.000000 0.000000 0.000000 0.000000 0.000000 10.000000 
null_rope01_connect 0.000000 0.000000 0.000000 0.000000 0.000000 0.000000 10.000000 
Rope1_Seg01 0.000000 0.000000 0.000000 0.000000 0.000000 0.000000 10.000000 
Rope1_Seg02 0.000000 0.000000 0.000000 0.000000 0.000000 0.000000 10.000000 
Rope1_Seg03 0.000000 0.000000 0.000000 0.000000 0.000000 0.000000 10.000000 
Rope1_Seg04 0.000000 0.000000 0.000000 0.000000 0.000000 0.000000 10.000000 
Rope1_Seg05 0.000000 0.000000 0.000000 0.000000 0.000000 0.000000 10.000000 
Rope1_Seg06 0.000000 0.000000 0.000000 0.000000 0.000000 0.000000 10.000000 
Rope1_Seg07 0.000000 0.000000 0.000000 0.000000 0.000000 0.000000 10.000000 
Rope1_Seg09 0.000000 0.000000 0.000000 0.000000 0.000000 0.000000 10.000000 
L_mid_hand01 0.000000 0.000000 0.000000 0.000000 0.000000 0.000000 10.000000 
L_mid_hand02 0.000000 0.000000 0.000000 0.000000 0.000000 0.000000 10.000000 
L_mid_hand03 0.000000 0.000000 0.000000 0.000000 0.000000 0.000000 10.000000 
null_rope02_connect 0.000000 0.000000 0.000000 0.000000 0.000000 0.000000 10.000000 
Rope2_Seg01 0.000000 0.000000 0.000000 0.000000 0.000000 0.000000 10.000000 
Rope2_Seg02 0.000000 0.000000 0.000000 0.000000 0.000000 0.000000 10.000000 
Rope2_Seg03 0.000000 0.000000 0.000000 0.000000 0.000000 0.000000 10.000000 
Rope2_Seg04 0.000000 0.000000 0.000000 0.000000 0.000000 0.000000 10.000000 
Rope2_Seg05 0.000000 0.000000 0.000000 0.000000 0.000000 0.000000 10.000000 
Rope2_Seg06 0.000000 0.000000 0.000000 0.000000 0.000000 0.000000 10.000000 
Rope2_Seg07 0.000000 0.000000 0.000000 0.000000 0.000000 0.000000 10.000000 
Rope2_Seg09 0.000000 0.000000 0.000000 0.000000 0.000000 0.000000 10.000000 
R_mid_hand01 0.000000 0.000000 0.000000 0.000000 0.000000 0.000000 10.000000 
R_mid_hand02 0.000000 0.000000 0.000000 0.000000 0.000000 0.000000 10.000000 
R_mid_hand03 0.000000 0.000000 0.000000 0.000000 0.000000 0.000000 10.000000 
spine02 0.000000 0.000000 0.000000 0.000000 0.000000 0.000000 10.000000 
spine03 0.000000 0.000000 0.000000 0.000000 0.000000 0.000000 10.000000 
pelvis 0.000000 0.000000 0.000000 0.000000 0.000000 0.000000 10.000000 
null_rope03_connect 0.000000 0.000000 0.000000 0.000000 0.000000 0.000000 10.000000 
null_rope04_connect 0.000000 0.000000 0.000000 0.000000 0.000000 0.000000 10.000000 
Rope3_Seg01 0.000000 0.000000 0.000000 0.000000 0.000000 0.000000 10.000000 
Rope3_Seg02 0.000000 0.000000 0.000000 0.000000 0.000000 0.000000 10.000000 
Rope3_Seg03 0.000000 0.000000 0.000000 0.000000 0.000000 0.000000 10.000000 
Rope3_Seg04 0.000000 0.000000 0.000000 0.000000 0.000000 0.000000 10.000000 
Rope3_Seg05 0.000000 0.000000 0.000000 0.000000 0.000000 0.000000 10.000000 
Rope3_Seg06 0.000000 0.000000 0.000000 0.000000 0.000000 0.000000 10.000000 
Rope3_Seg07 0.000000 0.000000 0.000000 0.000000 0.000000 0.000000 10.000000 
Rope3_Seg08 0.000000 0.000000 0.000000 0.000000 0.000000 0.000000 10.000000 
Rope3_Seg09 0.000000 0.000000 0.000000 0.000000 0.000000 0.000000 10.000000 
R_rear_hand01 0.000000 0.000000 0.000000 0.000000 0.000000 0.000000 10.000000 
R_rear_hand02 0.000000 0.000000 0.000000 0.000000 0.000000 0.000000 10.000000 
R_rear_hand03 0.000000 0.000000 0.000000 0.000000 0.000000 0.000000 10.000000 
Rope4_Seg01 0.000000 0.000000 0.000000 0.000000 0.000000 0.000000 10.000000 
Rope4_Seg02 0.000000 0.000000 0.000000 0.000000 0.000000 0.000000 10.000000 
Rope4_Seg03 0.000000 0.000000 0.000000 0.000000 0.000000 0.000000 10.000000 
Rope4_Seg04 0.000000 0.000000 0.000000 0.000000 0.000000 0.000000 10.000000 
Rope4_Seg05 0.000000 0.000000 0.000000 0.000000 0.000000 0.000000 10.000000 
Rope4_Seg06 0.000000 0.000000 0.000000 0.000000 0.000000 0.000000 10.000000 
Rope4_Seg07 0.000000 0.000000 0.000000 0.000000 0.000000 0.000000 10.000000 
Rope4_Seg08 0.000000 0.000000 0.000000 0.000000 0.000000 0.000000 10.000000 
Rope4_Seg09 0.000000 0.000000 0.000000 0.000000 0.000000 0.000000 10.000000 
L_rear_hand01 0.000000 0.000000 0.000000 0.000000 0.000000 0.000000 10.000000 
L_rear_hand02 0.000000 0.000000 0.000000 0.000000 0.000000 0.000000 10.000000 
L_rear_hand03 0.000000 0.000000 0.000000 0.000000 0.000000 0.000000 10.000000 
#Beginning of Data. Separated by tabs
#Fr	Tx	Ty	Tz	Rx	Ry	Rz	SF
[MASTER]
1 0.000000 0.000000 0.000000 0.001660 0.001660 0.001660 0.000000
2 0.000000 0.000000 0.000000 0.001660 0.001660 0.001660 0.000000
[root]
1 -16.502302 0.000001 1500.000000 -91.740158 13.400836 -90.225014 1500.090698
2 -15.433481 -0.601413 1499.361938 -91.740158 13.400836 -90.225014 1499.441528
[chest]
1 -84.512650 -34.090519 0.000000 -2.117274 0.462005 -179.268204 91.129311
2 -84.512650 -34.090519 0.000000 -2.117274 0.462005 -179.268204 91.129311
[L_mid_tent01]
1 27.299511 22.177458 -249.918259 -11.212391 7.173965 46.128521 252.381134
2 27.299511 22.177458 -249.918259 -11.176027 8.843647 46.053333 252.381134
[R_mid_tent01]
1 23.228794 24.509907 226.238495 -173.453110 -7.865565 48.320805 228.744751
2 23.228794 24.509907 226.238495 -173.574356 -9.091459 48.298237 228.744751
[spine01]
1 -0.361383 -0.195265 0.000000 -0.000001 -0.000007 22.052340 0.410763
2 -0.361383 -0.195265 0.000000 -0.000001 -0.000007 22.052340 0.410763
[Bip01_Neck]
1 165.484543 71.581718 0.000119 175.896118 1.177290 24.871183 180.302734
2 165.484543 71.581718 0.000119 175.896118 1.177290 24.871185 180.302734
[L_humerus]
1 -13.983130 -135.272980 -120.471481 175.474304 58.687801 -118.474754 181.680161
2 -13.983130 -135.272980 -120.471481 175.474319 58.687805 -118.474754 181.680161
[R_humerus]
1 -13.983309 -135.273102 125.287651 174.588181 -51.786880 -99.934280 184.909012
2 -13.983309 -135.273102 125.287651 174.588181 -51.786888 -99.934280 184.909012
[weapon_bone]
1 235.964890 -300.705902 0.000000 0.000000 -89.951546 -128.212341 382.234833
2 235.964890 -300.705902 0.000000 0.000000 -89.951546 -128.212341 382.234833
[Bip01_Head]
1 163.817291 272.852325 22.822264 1.693472 4.424703 -42.711670 319.069519
2 163.817291 272.852325 22.822264 1.693472 4.424703 -42.711670 319.069519
[eye_left_bone]
1 -24.626970 125.451866 -64.772606 0.000000 -90.000000 -99.840431 143.318359
2 -24.626970 125.451866 -64.772606 0.000000 -90.000000 -99.840431 143.318359
[eye_right_bone]
1 -24.626970 125.451866 64.327362 0.000000 -89.965736 80.156380 143.117676
2 -24.626970 125.451866 64.327362 0.000000 -89.965736 80.156380 143.117676
[L_forearm]
1 322.776093 0.000000 -0.000119 0.000442 -0.002305 -111.718391 322.776093
2 322.776093 0.000000 -0.000119 0.000442 -0.002305 -111.718391 322.776093
[L_front_hand]
1 241.149185 -0.042021 -3.300071 -179.659958 -2.242151 -0.019832 241.171753
2 241.149185 -0.042021 -3.300071 -179.659958 -2.242151 -0.019832 241.171753
[L_weapon_bone]
1 156.183838 0.000000 0.000000 0.000014 0.000007 0.000001 156.183838
2 156.183838 0.000000 0.000000 0.000014 0.000007 0.000001 156.183838
[L_front_hand01_01]
1 86.095154 20.947098 -0.655860 -0.366594 -0.477154 75.385574 88.609184
2 86.095154 20.947098 -0.655860 -0.366594 -0.477154 75.385574 88.609184
[L_front_hand02_01]
1 86.935165 -11.437475 24.513514 154.399796 -59.883835 -61.369587 91.046425
2 86.935165 -11.437475 24.513514 154.399796 -59.883820 -61.369564 91.046425
[L_front_hand03_01]
1 86.637497 -14.123976 -20.424902 -153.913849 58.118122 -62.702866 90.126129
2 86.637497 -14.123976 -20.424902 -153.913849 58.118122 -62.702866 90.126129
[L_front_hand01_02]
1 71.020905 -0.000179 0.000030 0.000334 -0.002323 -106.379684 71.020905
2 71.020905 -0.000179 0.000030 0.000334 -0.002323 -106.379684 71.020905
[L_front_hand02_02]
1 71.020927 -0.000119 0.000060 0.000334 -0.002323 -106.379684 71.020927
2 71.020927 -0.000119 0.000060 0.000334 -0.002323 -106.379684 71.020927
[L_front_hand03_02]
1 71.020905 -0.000060 0.000060 0.000334 -0.002323 -106.379684 71.020905
2 71.020905 -0.000060 0.000060 0.000334 -0.002323 -106.379684 71.020905
[R_forearm]
1 322.776428 -0.000060 0.000030 0.211305 0.032976 -99.623016 322.776428
2 322.776428 -0.000060 0.000030 0.211305 0.032976 -99.623016 322.776428
[R_front_hand]
1 238.847015 -0.006795 2.210259 -0.270529 1.703932 2.322530 238.857239
2 238.847015 -0.006795 2.210259 -0.270529 1.703932 2.322530 238.857239
[R_weapon_bone]
1 155.664093 0.002503 -0.000030 0.003487 0.001180 -90.988930 155.664078
2 155.664093 0.002503 -0.000030 0.003487 0.001180 -90.988930 155.664078
[R_front_hand01_01]
1 87.624611 14.231146 22.918642 -154.633499 -59.950619 61.746044 91.683487
2 87.624611 14.231146 22.918642 -154.633484 -59.950607 61.746044 91.683487
[R_front_hand02_01]
1 89.356956 14.367283 -19.491137 154.602661 58.302849 63.744389 92.579636
2 89.356956 14.367283 -19.491137 154.602661 58.302849 63.744389 92.579636
[R_front_hand03_01]
1 87.286232 -22.307278 -0.143439 0.162155 -0.423168 -75.767921 90.091743
2 87.286232 -22.307278 -0.143439 0.162155 -0.423168 -75.767921 90.091743
[R_front_hand01_02]
1 71.020905 0.000060 0.000119 0.002323 -0.000334 106.381714 71.020905
2 71.020905 0.000060 0.000119 0.002323 -0.000334 106.381721 71.020905
[R_front_hand02_02]
1 71.020844 -0.000030 -0.000119 0.002323 -0.000334 106.381714 71.020836
2 71.020844 -0.000030 -0.000119 0.002323 -0.000334 106.381721 71.020836
[R_front_hand03_02]
1 71.020905 0.000000 0.000030 0.002323 -0.000334 106.381714 71.020905
2 71.020905 0.000000 0.000030 0.002323 -0.000334 106.381721 71.020905
[null_rope01_connect]
1 328.732483 0.000000 -0.000238 155.010391 -75.114059 -125.320694 328.732483
2 328.732483 0.000000 -0.000238 160.047195 -74.137245 -130.428467 328.732483
[Rope1_Seg01]
1 0.000000 0.000000 0.000000 -131.516739 60.935997 -119.921837 0.000000
2 0.000000 0.000000 0.000000 -123.158188 61.206158 -114.415871 0.000000
[Rope1_Seg02]
1 139.999863 -0.000179 0.000000 24.115517 -8.135128 -14.249719 139.999863
2 139.999863 -0.000179 0.000000 23.194065 -8.855457 -13.571141 139.999863
[Rope1_Seg03]
1 139.999924 0.000060 -0.000060 16.001225 -10.624922 -6.005898 139.999924
2 139.999924 0.000060 -0.000060 14.711237 -10.776793 -5.401145 139.999924
[Rope1_Seg04]
1 139.999924 -0.000060 -0.000119 8.181784 -9.835290 -0.663670 139.999924
2 139.999924 -0.000060 -0.000119 7.527468 -9.773340 -0.468717 139.999924
[Rope1_Seg05]
1 139.999832 0.000119 -0.000060 1.763566 -0.033655 -2.526607 139.999832
2 139.999832 0.000119 -0.000060 1.311065 0.310922 -2.383890 139.999832
[Rope1_Seg06]
1 139.999954 0.000119 -0.000060 -2.500459 8.931663 -8.268414 139.999954
2 139.999954 0.000119 -0.000060 -3.822889 9.937404 -7.970876 139.999954
[Rope1_Seg07]
1 139.999985 0.000060 0.000000 -25.082087 17.895376 -14.821128 139.999985
2 139.999985 0.000060 0.000000 -37.842327 20.800972 -14.375532 139.999985
[Rope1_Seg09]
1 121.602913 0.000119 -0.000089 -89.793175 -1.359789 0.847147 121.602913
2 121.602913 0.000119 -0.000089 -89.793175 -1.359789 0.847147 121.602913
[L_mid_hand01]
1 103.859421 1.038730 8.195221 106.855484 -31.239275 -9.461397 104.187431
2 103.859421 1.038730 8.195221 106.855484 -31.239275 -9.461397 104.187431
[L_mid_hand02]
1 105.572853 -4.139662 -10.864139 -142.331345 25.752670 -28.774628 106.211075
2 105.572853 -4.139662 -10.864139 -142.331345 25.752670 -28.774628 106.211075
[L_mid_hand03]
1 104.641464 17.579376 -3.913581 -16.122810 9.734291 34.223598 106.179977
2 104.641464 17.579376 -3.913581 -16.122810 9.734291 34.223598 106.179977
[null_rope02_connect]
1 328.732849 0.000179 -0.000119 167.162415 81.470650 -40.675457 328.732849
2 328.732849 0.000179 -0.000119 172.594421 80.580673 -35.181217 328.732849
[Rope2_Seg01]
1 0.000000 0.000000 0.000000 125.974129 54.583744 -104.668304 0.000000
2 0.000000 0.000000 0.000000 125.431450 53.404793 -104.484947 0.000000
[Rope2_Seg02]
1 139.999741 -0.000060 -0.000119 0.768810 6.135638 -4.272121 139.999756
2 139.999741 -0.000060 -0.000119 0.465349 4.502002 -2.940201 139.999756
[Rope2_Seg03]
1 140.000107 0.000030 0.000000 0.798707 1.324005 -1.656017 140.000107
2 140.000107 0.000030 0.000000 -0.501671 -1.209437 1.292950 140.000107
[Rope2_Seg04]
1 139.999802 0.000000 -0.000060 1.894222 12.043471 -7.897604 139.999802
2 139.999802 0.000000 -0.000060 2.397130 13.173892 -9.653324 139.999802
[Rope2_Seg05]
1 139.999985 -0.000060 0.000119 4.268149 10.906768 -7.412079 139.999985
2 139.999985 -0.000060 0.000119 8.066905 12.337765 -10.478312 139.999985
[Rope2_Seg06]
1 139.999893 -0.000030 -0.000119 3.752437 3.756522 -3.083904 139.999893
2 139.999893 -0.000030 -0.000119 6.440774 3.609739 -4.122745 139.999893
[Rope2_Seg07]
1 139.999893 0.000060 -0.000060 3.403986 2.109468 -1.984523 139.999893
2 139.999893 0.000060 -0.000060 5.646712 1.825985 -2.642223 139.999893
[Rope2_Seg09]
1 121.338966 0.000089 -0.000060 33.793236 -1.359788 -0.847141 121.338966
2 121.338966 0.000089 -0.000060 33.793236 -1.359788 -0.847141 121.338966
[R_mid_hand01]
1 104.680779 11.144459 -10.335981 -41.523792 25.424656 28.595957 105.778534
2 104.680779 11.144459 -10.335981 -41.523792 25.424656 28.595957 105.778534
[R_mid_hand02]
1 104.070427 2.443552 8.231699 72.847389 -32.746803 10.013901 104.424065
2 104.070427 2.443552 8.231699 72.847389 -32.746803 10.013901 104.424065
[R_mid_hand03]
1 106.028137 -11.221827 -5.996406 -167.901306 10.259192 -37.009720 106.788818
2 106.028137 -11.221827 -5.996406 -167.901306 10.259192 -37.009720 106.788818
[spine02]
1 129.756927 0.001550 0.000119 0.360061 -4.044797 -12.915058 129.756927
2 129.756927 0.001550 0.000119 0.360061 -4.044796 -12.915055 129.756927
[spine03]
1 78.613846 0.087372 -4.898873 1.896495 3.831288 16.473045 78.766380
2 78.613846 0.087372 -4.898873 1.896495 3.831288 16.473045 78.766380
[pelvis]
1 169.435242 0.051022 0.000000 -0.060465 -0.180225 14.087930 169.435257
2 169.435242 0.051022 0.000000 -0.060465 -0.180225 14.087931 169.435257
[null_rope03_connect]
1 -1.257226 -2.466202 137.391083 -159.503860 -89.311867 -163.586563 137.418976
2 -1.257226 -2.466202 137.391083 -159.503860 -89.311867 -163.586563 137.418976
[null_rope04_connect]
1 -1.259640 -2.480268 -137.844437 -159.503860 -89.311867 -163.586563 137.872513
2 -1.259640 -2.480268 -137.844437 -159.503860 -89.311867 -163.586563 137.872513
[Rope3_Seg01]
1 0.000000 0.000000 0.000000 -131.472977 13.901672 -79.514801 0.000000
2 0.000000 0.000000 0.000000 -131.165039 15.285791 -77.684921 0.000000
[Rope3_Seg02]
1 139.999924 -0.000119 0.000060 0.031679 3.610609 8.650327 139.999924
2 139.999924 -0.000119 0.000060 0.297830 4.622674 8.306767 139.999924
[Rope3_Seg03]
1 139.999924 -0.000119 0.000119 0.217884 6.211969 11.742785 139.999924
2 139.999924 -0.000119 0.000119 0.897099 7.592247 11.355998 139.999924
[Rope3_Seg04]
1 139.999924 0.000119 0.000000 1.919579 10.847711 16.129990 139.999924
2 139.999924 0.000119 0.000000 4.131008 13.106974 15.724679 139.999924
[Rope3_Seg05]
1 139.999924 -0.000238 0.000060 -7.367667 -14.408971 -4.057502 139.999924
2 139.999924 -0.000238 0.000060 -8.772573 -14.430099 -2.170773 139.999924
[Rope3_Seg06]
1 139.999893 -0.000119 -0.000060 -1.115605 -17.537716 -12.714710 139.999893
2 139.999893 -0.000119 -0.000060 -2.473842 -18.373657 -10.770520 139.999893
[Rope3_Seg07]
1 139.999771 0.000060 -0.000119 0.103754 -7.116129 -4.430914 139.999771
2 139.999771 0.000060 -0.000119 -0.220618 -7.254834 -3.766173 139.999771
[Rope3_Seg08]
1 139.999985 -0.000060 0.000000 0.447888 -4.060619 -2.533375 139.999985
2 139.999985 -0.000060 0.000000 0.298574 -4.143745 -2.186806 139.999985
[Rope3_Seg09]
1 90.185997 -0.000179 -0.000060 89.793228 -1.359877 -0.847183 90.185997
2 90.185997 -0.000179 -0.000060 89.793228 -1.359877 -0.847183 90.185997
[R_rear_hand01]
1 103.366196 -6.073594 -10.757982 -161.551193 16.666374 -30.088671 104.101845
2 103.366196 -6.073594 -10.757982 -161.551193 16.666374 -30.088671 104.101845
[R_rear_hand02]
1 100.509819 12.039542 -7.992327 -34.280552 19.289745 28.875523 101.543350
2 100.509819 12.039542 -7.992327 -34.280552 19.289745 28.875523 101.543350
[R_rear_hand03]
1 101.539970 5.215704 5.435467 83.366440 -30.933914 7.284830 101.819031
2 101.539970 5.215704 5.435467 83.366440 -30.933914 7.284830 101.819031
[Rope4_Seg01]
1 0.000010 0.000038 -0.000114 56.263672 35.226627 -89.769989 0.000121
2 0.000010 0.000038 -0.000114 57.538704 34.401703 -86.838142 0.000121
[Rope4_Seg02]
1 139.999985 0.000060 0.000119 0.085587 -5.836346 -2.617643 139.999985
2 139.999985 0.000060 0.000119 0.364264 -6.259275 -3.639570 139.999985
[Rope4_Seg03]
1 139.999924 0.000000 -0.000238 0.233715 -7.041626 -3.367761 139.999924
2 139.999924 0.000000 -0.000238 0.460132 -7.459343 -4.519817 139.999924
[Rope4_Seg04]
1 139.999985 0.000000 0.000119 1.020119 -12.654916 -9.746750 139.999985
2 139.999985 0.000000 0.000119 1.098222 -12.433883 -10.905131 139.999985
[Rope4_Seg05]
1 139.999802 -0.000060 -0.000119 0.781716 -2.252967 3.365415 139.999802
2 139.999802 -0.000060 -0.000119 0.665026 -2.949147 2.102147 139.999802
[Rope4_Seg06]
1 139.999924 0.000000 0.000060 2.283004 10.736774 18.855505 139.999924
2 139.999924 0.000000 0.000060 2.274540 8.744340 17.576460 139.999924
[Rope4_Seg07]
1 139.999802 0.000000 0.000000 -0.925870 5.673741 11.065470 139.999802
2 139.999802 0.000000 0.000000 -0.535522 4.907887 10.870872 139.999802
[Rope4_Seg08]
1 139.999924 0.000000 0.000119 -2.911267 2.869090 6.360653 139.999924
2 139.999924 0.000000 0.000119 -2.598529 2.458041 6.277742 139.999924
[Rope4_Seg09]
1 90.185791 0.000060 0.000060 -135.617828 2.228885 0.850567 90.185791
2 90.185791 0.000060 0.000060 -135.617828 2.228885 0.850567 90.185791
[L_rear_hand01]
1 101.696655 -8.392275 -7.654577 -34.454281 -18.946800 151.655121 102.329041
2 101.696655 -8.392275 -7.654577 -34.454281 -18.946800 151.655121 102.329041
[L_rear_hand02]
1 102.726799 -1.568258 5.773216 83.407906 30.330435 172.796509 102.900848
2 102.726799 -1.568258 5.773216 83.407906 30.330435 172.796509 102.900848
[L_rear_hand03]
1 104.552910 9.721220 -10.420293 -161.379868 -16.473232 -150.512238 105.519653
2 104.552910 9.721220 -10.420293 -161.379868 -16.473232 -150.512238 105.519653
